<svg width="16" height="14" viewBox="0 0 16 14" fill="none" xmlns="http://www.w3.org/2000/svg">
<g clip-path="url(#clip0_1_183)">
<path d="M9.05139 6.98903L10.6112 8.74662L12.7088 10.0679L13.0737 7.00012L12.7088 4.00156L10.571 5.16226L9.05139 6.98903Z" fill="#00832D"/>
<path d="M0 9.78237V12.3965C0 12.9934 0.4915 13.4781 1.09713 13.4781H3.749L4.29812 11.5029L3.749 9.78237L1.92963 9.24105L6.25e-05 9.78237H0Z" fill="#0066DA"/>
<path d="M3.749 0.5L0 4.1957L1.92975 4.73572L3.749 4.1957L4.28813 2.49861L3.749 0.5Z" fill="#E94235"/>
<path d="M0.00012207 9.78354H3.74906V4.19564H0.00012207V9.78354Z" fill="#2684FC"/>
<path d="M15.1037 2.06481L12.7087 4.00162V10.0679L15.1136 12.0122C15.4736 12.2902 16.0002 12.0369 16.0002 11.5857V2.48266C16.0002 2.02655 15.461 1.77443 15.1036 2.06487" fill="#00AC47"/>
<path d="M9.0514 6.98903V9.78237H3.74902V13.4781H11.6118C12.2174 13.4781 12.7088 12.9934 12.7088 12.3965V10.0679L9.0514 6.98903Z" fill="#00AC47"/>
<path d="M11.6118 0.5H3.74902V4.1957H9.0514V6.98903L12.7089 4.0015V1.58159C12.7089 0.984574 12.2174 0.500062 11.6118 0.500062" fill="#FFBA00"/>
</g>
<defs>
<clipPath id="clip0_1_183">
<rect width="16" height="13" fill="white" transform="translate(0 0.5)"/>
</clipPath>
</defs>
</svg>
